<?xml version="1.0" standalone="no"?>
<!DOCTYPE svg PUBLIC "-//W3C//DTD SVG 20010904//EN"
 "http://www.w3.org/TR/2001/REC-SVG-20010904/DTD/svg10.dtd">
<svg version="1.0" xmlns="http://www.w3.org/2000/svg"
 width="500.000000pt" height="500.000000pt" viewBox="0 0 500.000000 500.000000"
 preserveAspectRatio="xMidYMid meet">
<metadata>
Created by potrace 1.14, written by Peter Selinger 2001-2017
</metadata>
<g transform="translate(0.000000,500.000000) scale(0.100000,-0.100000)"
fill="#000000" stroke="none">
<path d="M0 2500 l0 -2500 2500 0 2500 0 0 2500 0 2500 -2500 0 -2500 0 0
-2500z m3275 1715 c194 -35 319 -99 437 -222 145 -153 231 -367 274 -682 24
-173 31 -2056 9 -2146 -44 -174 -154 -286 -324 -330 -85 -22 -277 -22 -362 0
-174 45 -279 150 -326 326 -15 58 -17 150 -17 969 -1 994 2 943 -62 1060 -63
116 -163 165 -334 164 -107 -1 -155 -12 -250 -57 -78 -38 -180 -136 -230 -222
l-35 -59 -2 -891 c-3 -989 -2 -979 -69 -1091 -88 -150 -227 -215 -459 -215
-278 -1 -430 88 -507 298 l-22 58 -2 1305 c-2 1433 -5 1364 58 1483 79 148
228 219 463 219 242 0 406 -65 459 -182 17 -38 21 -71 24 -217 2 -95 7 -173
11 -173 3 0 27 35 53 78 138 230 367 412 613 487 172 53 435 70 600 40z"/>
</g>
</svg>
